<svg width="40" height="40" viewBox="0 0 40 40" fill="none" xmlns="http://www.w3.org/2000/svg">
<circle cx="20" cy="20" r="20" fill="#DFDFDF"/>
<path d="M15.2522 20.7967L24.3127 30.0853C24.4639 30.2404 24.6647 30.3269 24.8736 30.3269C25.0824 30.3269 25.2833 30.2404 25.4345 30.0853L25.4442 30.0748C25.5178 29.9997 25.5763 29.9092 25.6163 29.8089C25.6564 29.7086 25.677 29.6006 25.677 29.4915C25.677 29.3823 25.6564 29.2743 25.6163 29.174C25.5763 29.0737 25.5178 28.9832 25.4442 28.9081L16.9121 20.1617L25.4442 11.4188C25.5178 11.3437 25.5763 11.2532 25.6163 11.1529C25.6564 11.0526 25.677 10.9446 25.677 10.8355C25.677 10.7263 25.6564 10.6183 25.6163 10.518C25.5763 10.4177 25.5178 10.3272 25.4442 10.2521L25.4345 10.2416C25.2833 10.0865 25.0824 10 24.8736 10C24.6647 10 24.4639 10.0865 24.3127 10.2416L15.2522 19.5302C15.1725 19.6119 15.109 19.7102 15.0657 19.819C15.0224 19.9279 15 20.045 15 20.1635C15 20.2819 15.0224 20.3991 15.0657 20.5079C15.109 20.6168 15.1725 20.715 15.2522 20.7967Z" fill="#323488"/>
</svg>
