<svg width="40" height="40" viewBox="0 0 40 40" fill="none" xmlns="http://www.w3.org/2000/svg">
<circle cx="20" cy="20" r="20" fill="#323488"/>
<path d="M25.4248 19.5302L16.3643 10.2416C16.2131 10.0865 16.0123 10 15.8034 10C15.5946 10 15.3937 10.0865 15.2425 10.2416L15.2328 10.2521C15.1592 10.3272 15.1007 10.4177 15.0607 10.518C15.0206 10.6183 15 10.7263 15 10.8354C15 10.9446 15.0206 11.0526 15.0607 11.1529C15.1007 11.2532 15.1592 11.3437 15.2328 11.4188L23.7649 20.1652L15.2328 28.9081C15.1592 28.9832 15.1007 29.0737 15.0607 29.174C15.0206 29.2743 15 29.3823 15 29.4914C15 29.6006 15.0206 29.7086 15.0607 29.8089C15.1007 29.9092 15.1592 29.9997 15.2328 30.0748L15.2425 30.0853C15.3937 30.2404 15.5946 30.3269 15.8034 30.3269C16.0123 30.3269 16.2131 30.2404 16.3643 30.0853L25.4248 20.7967C25.5045 20.715 25.568 20.6168 25.6113 20.5079C25.6547 20.3991 25.677 20.2819 25.677 20.1634C25.677 20.045 25.6547 19.9278 25.6113 19.819C25.568 19.7101 25.5045 19.6119 25.4248 19.5302Z" fill="white"/>
</svg>
