<svg width="16" height="17" viewBox="0 0 16 17" fill="none" xmlns="http://www.w3.org/2000/svg">
<g clip-path="url(#clip0_0_20)">
<path d="M9.06222 12.6549L13.3333 8.36158L9.06222 4.06825C9.02364 4.01759 8.97464 3.97582 8.91851 3.94575C8.86239 3.91568 8.80046 3.89802 8.73692 3.89397C8.67338 3.88991 8.60971 3.89956 8.55022 3.92225C8.49073 3.94494 8.43682 3.98015 8.39212 4.02549C8.34742 4.07084 8.31298 4.12525 8.29114 4.18506C8.2693 4.24487 8.26057 4.30867 8.26553 4.37214C8.27049 4.43562 8.28903 4.49729 8.3199 4.55298C8.35077 4.60866 8.39324 4.65707 8.44444 4.69491L11.64 7.91714L3.13777 7.91714C3.0199 7.91714 2.90685 7.96396 2.8235 8.04731C2.74015 8.13066 2.69333 8.24371 2.69333 8.36158C2.69333 8.47946 2.74015 8.5925 2.8235 8.67585C2.90685 8.7592 3.0199 8.80603 3.13777 8.80603L11.64 8.80603L8.44444 12.0282C8.36134 12.1119 8.31489 12.2252 8.3153 12.3432C8.31572 12.4611 8.36297 12.574 8.44666 12.6571C8.53035 12.7402 8.64363 12.7867 8.76157 12.7863C8.87951 12.7859 8.99245 12.7386 9.07555 12.6549H9.06222Z" fill="#545454"/>
</g>
<defs>
<clipPath id="clip0_0_20">
<rect width="16" height="16" fill="white" transform="matrix(0 1 -1 0 16 0.361816)"/>
</clipPath>
</defs>
</svg>
