<svg width="37" height="37" viewBox="0 0 37 37" fill="none" xmlns="http://www.w3.org/2000/svg">
<path d="M18.5002 11.0884C14.3991 11.0884 11.0893 14.3982 11.0893 18.4993C11.0893 22.6003 14.3991 25.9101 18.5002 25.9101C22.6012 25.9101 25.911 22.6003 25.911 18.4993C25.911 14.3982 22.6012 11.0884 18.5002 11.0884ZM18.5002 23.3158C15.848 23.3158 13.6837 21.1514 13.6837 18.4993C13.6837 15.8471 15.848 13.6828 18.5002 13.6828C21.1523 13.6828 23.3167 15.8471 23.3167 18.4993C23.3167 21.1514 21.1523 23.3158 18.5002 23.3158ZM26.2145 9.05776C25.257 9.05776 24.4838 9.83101 24.4838 10.7885C24.4838 11.746 25.257 12.5193 26.2145 12.5193C27.172 12.5193 27.9453 11.7497 27.9453 10.7885C27.9456 10.5612 27.901 10.336 27.8141 10.1259C27.7272 9.91574 27.5998 9.72483 27.439 9.56406C27.2782 9.40328 27.0873 9.27581 26.8772 9.18893C26.6671 9.10205 26.4419 9.05748 26.2145 9.05776ZM32.9461 18.4993C32.9461 16.5047 32.9641 14.5283 32.8521 12.5374C32.7401 10.2249 32.2126 8.17251 30.5216 6.48149C28.8269 4.78687 26.7782 4.26294 24.4657 4.15093C22.4712 4.03892 20.4947 4.05698 18.5038 4.05698C16.5093 4.05698 14.5328 4.03892 12.5419 4.15093C10.2294 4.26294 8.17703 4.79048 6.48601 6.48149C4.79138 8.17612 4.26746 10.2249 4.15544 12.5374C4.04343 14.5319 4.0615 16.5084 4.0615 18.4993C4.0615 20.4902 4.04343 22.4703 4.15544 24.4612C4.26746 26.7737 4.795 28.826 6.48601 30.517C8.18064 32.2117 10.2294 32.7356 12.5419 32.8476C14.5364 32.9596 16.5129 32.9416 18.5038 32.9416C20.4983 32.9416 22.4748 32.9596 24.4657 32.8476C26.7782 32.7356 28.8305 32.2081 30.5216 30.517C32.2162 28.8224 32.7401 26.7737 32.8521 24.4612C32.9678 22.4703 32.9461 20.4938 32.9461 18.4993ZM29.7664 27.0194C29.5026 27.677 29.1846 28.1684 28.6752 28.6743C28.1657 29.1837 27.6779 29.5017 27.0203 29.7655C25.1197 30.5207 20.6067 30.3508 18.5002 30.3508C16.3936 30.3508 11.877 30.5207 9.97644 29.7691C9.31882 29.5053 8.82742 29.1874 8.32156 28.6779C7.81209 28.1684 7.49412 27.6806 7.23035 27.023C6.47879 25.1188 6.64861 20.6058 6.64861 18.4993C6.64861 16.3927 6.47879 11.8761 7.23035 9.97554C7.49412 9.31792 7.81209 8.82651 8.32156 8.32065C8.83103 7.8148 9.31882 7.49321 9.97644 7.22944C11.877 6.47788 16.3936 6.64771 18.5002 6.64771C20.6067 6.64771 25.1233 6.47788 27.0239 7.22944C27.6815 7.49321 28.1729 7.81118 28.6788 8.32065C29.1883 8.83013 29.5062 9.31792 29.77 9.97554C30.5216 11.8761 30.3517 16.3927 30.3517 18.4993C30.3517 20.6058 30.5216 25.1188 29.7664 27.0194Z" fill="#F8F8F8"/>
</svg>
