<svg width="158" height="32" viewBox="0 0 158 32" fill="none" xmlns="http://www.w3.org/2000/svg">
<path d="M16 0L19.5922 11.0557H31.2169L21.8123 17.8885L25.4046 28.9443L16 22.1115L6.59544 28.9443L10.1877 17.8885L0.783095 11.0557H12.4078L16 0Z" fill="#FFF500"/>
<path d="M49 0L52.5922 11.0557H64.2169L54.8123 17.8885L58.4046 28.9443L49 22.1115L39.5954 28.9443L43.1877 17.8885L33.7831 11.0557H45.4078L49 0Z" fill="#FFF500"/>
<path d="M78 0L81.5922 11.0557H93.2169L83.8123 17.8885L87.4046 28.9443L78 22.1115L68.5954 28.9443L72.1877 17.8885L62.7831 11.0557H74.4078L78 0Z" fill="#FFF500"/>
<path d="M110 0L113.592 11.0557H125.217L115.812 17.8885L119.405 28.9443L110 22.1115L100.595 28.9443L104.188 17.8885L94.7831 11.0557H106.408L110 0Z" fill="#FFF500"/>
<path d="M142 0L145.592 11.0557H157.217L147.812 17.8885L151.405 28.9443L142 22.1115L132.595 28.9443L136.188 17.8885L126.783 11.0557H138.408L142 0Z" fill="#FFF500"/>
</svg>
